<svg xmlns="http://www.w3.org/2000/svg" xmlns:xlink="http://www.w3.org/1999/xlink" width="500" zoomAndPan="magnify" viewBox="0 0 375 374.999991" height="500" preserveAspectRatio="xMidYMid meet" version="1.0"><defs><clipPath id="ba9a82a413"><path d="M 0 0.46875 L 175 0.46875 L 175 374.71875 L 0 374.71875 Z M 0 0.46875 " clip-rule="nonzero"/></clipPath><clipPath id="b1a67be879"><path d="M 202 0.46875 L 375 0.46875 L 375 374.71875 L 202 374.71875 Z M 202 0.46875 " clip-rule="nonzero"/></clipPath></defs><g clip-path="url(#ba9a82a413)"><path fill="#ff3131" d="M 1.347656 165.195312 C 0.476562 172.503906 0.0351562 179.941406 0.0351562 187.484375 C 0.0351562 195.027344 0.476562 202.464844 1.347656 209.773438 L 129.929688 209.773438 L 129.929688 315.90625 C 97.152344 301.191406 71.027344 274.292969 57.324219 240.976562 L 13.992188 258.59375 C 34.824219 309.367188 77.292969 348.976562 129.929688 365.945312 C 144.125 370.519531 159.058594 373.449219 174.507812 374.507812 L 174.507812 165.195312 L 48.554688 165.195312 C 56.113281 117.710938 87.425781 78.144531 129.929688 59.058594 L 129.929688 120.613281 L 174.507812 120.613281 L 174.507812 0.460938 C 159.058594 1.519531 144.125 4.445312 129.929688 9.023438 C 61.375 31.121094 10.058594 91.628906 1.347656 165.195312 Z M 1.347656 165.195312 " fill-opacity="1" fill-rule="nonzero"/></g><g clip-path="url(#b1a67be879)"><path fill="#ff3131" d="M 373.652344 165.199219 C 365.042969 92.511719 314.847656 32.574219 247.519531 9.835938 C 233.347656 5.046875 218.410156 1.910156 202.941406 0.648438 L 202.941406 374.328125 C 218.410156 373.066406 233.347656 369.925781 247.519531 365.136719 L 247.519531 209.777344 L 373.652344 209.777344 C 374.519531 202.46875 374.964844 195.03125 374.964844 187.488281 C 374.964844 179.941406 374.519531 172.507812 373.652344 165.199219 Z M 247.519531 165.199219 L 247.519531 60.195312 C 288.777344 79.679688 319.035156 118.628906 326.445312 165.199219 Z M 247.519531 165.199219 " fill-opacity="1" fill-rule="nonzero"/></g></svg>